M48
; DRILL file {KiCad 7.0.9} date Fri May 10 23:34:46 2024
; FORMAT={-:-/ absolute / metric / decimal}
; #@! TF.CreationDate,2024-05-10T23:34:46+03:00
; #@! TF.GenerationSoftware,Kicad,Pcbnew,7.0.9
; #@! TF.FileFunction,Plated,1,2,PTH
FMAT,2
METRIC
; #@! TA.AperFunction,Plated,PTH,ViaDrill
T1C0.400
; #@! TA.AperFunction,Plated,PTH,ComponentDrill
T2C1.000
; #@! TA.AperFunction,Plated,PTH,ComponentDrill
T3C1.100
%
G90
G05
T1
X57.6Y-70.8
X58.0Y-69.4
X58.4Y-100.4
X58.6Y-104.6
X58.8Y-113.0
X59.6Y-75.4
X59.6Y-107.6
X59.8Y-78.0
X60.6Y-97.2
X62.0Y-100.4
X62.0Y-104.4
X62.0Y-109.0
X63.0Y-97.2
X63.4Y-75.4
X63.4Y-77.6
X63.4Y-108.6
X63.6Y-68.6
X63.8Y-66.6
X64.0Y-120.4
X64.2Y-64.4
X64.6Y-97.2
X64.6Y-100.4
X64.8Y-110.4
X65.4Y-113.8
X66.0Y-97.2
X66.2Y-109.6
X66.4Y-106.0
X66.4Y-108.2
X66.8Y-112.0
X67.6Y-118.6
X67.8Y-66.2
X68.0Y-68.8
X68.2Y-97.2
X68.2Y-100.4
X68.2Y-105.4
X69.2Y-111.8
X69.6Y-108.0
X69.8Y-103.2
X70.2Y-97.2
X70.2Y-101.2
X70.6Y-114.6
X71.6Y-120.4
X72.0Y-69.2
X72.0Y-110.0
X72.2Y-64.6
X72.4Y-67.4
X72.6Y-92.8
X74.0Y-104.6
X74.2Y-110.0
X74.4Y-107.6
X74.6Y-118.2
X74.65Y-102.2
X75.2Y-97.0
X75.6Y-67.4
X75.6Y-69.8
X76.0Y-85.4
X76.0Y-92.0
X76.6Y-75.0
X77.0Y-105.6
X77.0Y-110.0
X77.0Y-115.4
X77.01Y-107.66
X77.6Y-99.6
X77.6Y-120.6
X77.8Y-97.0
X79.4Y-107.8
X79.4Y-110.0
X79.6Y-70.0
X79.6Y-105.4
X80.0Y-89.8
X80.0Y-99.8
X80.2Y-81.4
X80.2Y-81.4
X80.2Y-97.0
X80.2Y-118.2
X80.6Y-102.0
X81.26Y-110.41
X81.8Y-64.8
X82.4Y-108.4
X82.4Y-120.6
X82.6Y-109.4
X82.8Y-96.8
X83.0Y-101.8
X83.8Y-85.4
X84.0Y-75.0
X84.4Y-92.0
X85.2Y-97.2
X85.2Y-99.8
X85.2Y-118.2
X85.6Y-68.2
X85.6Y-106.1
X86.0Y-101.0
X87.6Y-111.0
X87.8Y-120.8
X88.0Y-97.2
X88.0Y-99.8
X88.4Y-64.8
X88.4Y-106.4
X89.4Y-112.6
X89.6Y-109.4
X90.2Y-95.6
X90.2Y-97.8
X91.0Y-112.6
X91.8Y-99.8
X91.8Y-109.4
X92.4Y-95.6
X92.6Y-97.8
X92.8Y-104.0
X92.8Y-111.0
X93.6Y-70.2
X94.0Y-75.2
X94.0Y-80.2
X94.0Y-85.2
X94.0Y-90.4
X94.0Y-95.0
T2
X61.3Y-73.96
X61.3Y-76.5
X61.3Y-79.04
X61.3Y-81.58
X61.3Y-84.12
X61.3Y-86.66
X61.3Y-89.2
X61.3Y-91.74
X61.3Y-94.28
X65.6Y-67.77
X65.6Y-70.31
X65.6Y-72.85
X65.6Y-75.39
X65.6Y-77.93
X65.6Y-80.47
X65.6Y-83.01
X65.6Y-85.55
X65.6Y-88.09
X65.6Y-90.63
X73.88Y-98.5
X75.76Y-103.86
X75.76Y-106.4
X75.76Y-108.94
X75.76Y-111.48
X76.42Y-98.5
X78.3Y-103.86
X78.3Y-106.4
X78.3Y-108.94
X78.3Y-111.48
X78.96Y-98.5
X81.5Y-98.5
X84.04Y-98.5
X86.58Y-98.5
X91.35Y-73.86
X91.35Y-76.4
X91.35Y-78.94
X91.35Y-81.48
X91.35Y-84.02
X91.35Y-86.56
X91.35Y-89.1
X91.35Y-91.64
X91.35Y-94.18
X91.35Y-96.72
T3
X71.36Y-73.7
X71.36Y-76.24
X71.36Y-78.78
X71.36Y-81.32
X71.36Y-83.86
X71.36Y-86.4
X71.36Y-88.94
X71.36Y-91.48
X71.36Y-94.02
X73.9Y-68.62
X73.9Y-71.16
X73.9Y-73.7
X73.9Y-76.24
X73.9Y-78.78
X73.9Y-81.32
X73.9Y-83.86
X73.9Y-86.4
X73.9Y-88.94
X73.9Y-91.48
X73.9Y-94.02
X76.44Y-94.02
X78.98Y-94.02
X81.52Y-94.02
X84.06Y-94.02
X86.6Y-73.7
X86.6Y-76.24
X86.6Y-78.78
X86.6Y-81.32
X86.6Y-83.86
X86.6Y-86.4
X86.6Y-88.94
X86.6Y-91.48
X86.6Y-94.02
T0
M30
