%TF.GenerationSoftware,KiCad,Pcbnew,8.0.2*%
%TF.CreationDate,2024-06-07T02:26:32+03:00*%
%TF.ProjectId,switch emergent,73776974-6368-4206-956d-657267656e74,rev?*%
%TF.SameCoordinates,Original*%
%TF.FileFunction,Legend,Top*%
%TF.FilePolarity,Positive*%
%FSLAX46Y46*%
G04 Gerber Fmt 4.6, Leading zero omitted, Abs format (unit mm)*
G04 Created by KiCad (PCBNEW 8.0.2) date 2024-06-07 02:26:32*
%MOMM*%
%LPD*%
G01*
G04 APERTURE LIST*
%ADD10C,0.150000*%
%ADD11C,0.120000*%
G04 APERTURE END LIST*
D10*
X60633333Y-112359580D02*
X60585714Y-112407200D01*
X60585714Y-112407200D02*
X60442857Y-112454819D01*
X60442857Y-112454819D02*
X60347619Y-112454819D01*
X60347619Y-112454819D02*
X60204762Y-112407200D01*
X60204762Y-112407200D02*
X60109524Y-112311961D01*
X60109524Y-112311961D02*
X60061905Y-112216723D01*
X60061905Y-112216723D02*
X60014286Y-112026247D01*
X60014286Y-112026247D02*
X60014286Y-111883390D01*
X60014286Y-111883390D02*
X60061905Y-111692914D01*
X60061905Y-111692914D02*
X60109524Y-111597676D01*
X60109524Y-111597676D02*
X60204762Y-111502438D01*
X60204762Y-111502438D02*
X60347619Y-111454819D01*
X60347619Y-111454819D02*
X60442857Y-111454819D01*
X60442857Y-111454819D02*
X60585714Y-111502438D01*
X60585714Y-111502438D02*
X60633333Y-111550057D01*
X61490476Y-111788152D02*
X61490476Y-112454819D01*
X61252381Y-111407200D02*
X61014286Y-112121485D01*
X61014286Y-112121485D02*
X61633333Y-112121485D01*
X84361905Y-116054819D02*
X84361905Y-115054819D01*
X84361905Y-115054819D02*
X84600000Y-115054819D01*
X84600000Y-115054819D02*
X84742857Y-115102438D01*
X84742857Y-115102438D02*
X84838095Y-115197676D01*
X84838095Y-115197676D02*
X84885714Y-115292914D01*
X84885714Y-115292914D02*
X84933333Y-115483390D01*
X84933333Y-115483390D02*
X84933333Y-115626247D01*
X84933333Y-115626247D02*
X84885714Y-115816723D01*
X84885714Y-115816723D02*
X84838095Y-115911961D01*
X84838095Y-115911961D02*
X84742857Y-116007200D01*
X84742857Y-116007200D02*
X84600000Y-116054819D01*
X84600000Y-116054819D02*
X84361905Y-116054819D01*
X85885714Y-116054819D02*
X85314286Y-116054819D01*
X85600000Y-116054819D02*
X85600000Y-115054819D01*
X85600000Y-115054819D02*
X85504762Y-115197676D01*
X85504762Y-115197676D02*
X85409524Y-115292914D01*
X85409524Y-115292914D02*
X85314286Y-115340533D01*
X71438095Y-107054819D02*
X71438095Y-107864342D01*
X71438095Y-107864342D02*
X71485714Y-107959580D01*
X71485714Y-107959580D02*
X71533333Y-108007200D01*
X71533333Y-108007200D02*
X71628571Y-108054819D01*
X71628571Y-108054819D02*
X71819047Y-108054819D01*
X71819047Y-108054819D02*
X71914285Y-108007200D01*
X71914285Y-108007200D02*
X71961904Y-107959580D01*
X71961904Y-107959580D02*
X72009523Y-107864342D01*
X72009523Y-107864342D02*
X72009523Y-107054819D01*
X72438095Y-107150057D02*
X72485714Y-107102438D01*
X72485714Y-107102438D02*
X72580952Y-107054819D01*
X72580952Y-107054819D02*
X72819047Y-107054819D01*
X72819047Y-107054819D02*
X72914285Y-107102438D01*
X72914285Y-107102438D02*
X72961904Y-107150057D01*
X72961904Y-107150057D02*
X73009523Y-107245295D01*
X73009523Y-107245295D02*
X73009523Y-107340533D01*
X73009523Y-107340533D02*
X72961904Y-107483390D01*
X72961904Y-107483390D02*
X72390476Y-108054819D01*
X72390476Y-108054819D02*
X73009523Y-108054819D01*
X93583333Y-108459580D02*
X93535714Y-108507200D01*
X93535714Y-108507200D02*
X93392857Y-108554819D01*
X93392857Y-108554819D02*
X93297619Y-108554819D01*
X93297619Y-108554819D02*
X93154762Y-108507200D01*
X93154762Y-108507200D02*
X93059524Y-108411961D01*
X93059524Y-108411961D02*
X93011905Y-108316723D01*
X93011905Y-108316723D02*
X92964286Y-108126247D01*
X92964286Y-108126247D02*
X92964286Y-107983390D01*
X92964286Y-107983390D02*
X93011905Y-107792914D01*
X93011905Y-107792914D02*
X93059524Y-107697676D01*
X93059524Y-107697676D02*
X93154762Y-107602438D01*
X93154762Y-107602438D02*
X93297619Y-107554819D01*
X93297619Y-107554819D02*
X93392857Y-107554819D01*
X93392857Y-107554819D02*
X93535714Y-107602438D01*
X93535714Y-107602438D02*
X93583333Y-107650057D01*
X93916667Y-107554819D02*
X94535714Y-107554819D01*
X94535714Y-107554819D02*
X94202381Y-107935771D01*
X94202381Y-107935771D02*
X94345238Y-107935771D01*
X94345238Y-107935771D02*
X94440476Y-107983390D01*
X94440476Y-107983390D02*
X94488095Y-108031009D01*
X94488095Y-108031009D02*
X94535714Y-108126247D01*
X94535714Y-108126247D02*
X94535714Y-108364342D01*
X94535714Y-108364342D02*
X94488095Y-108459580D01*
X94488095Y-108459580D02*
X94440476Y-108507200D01*
X94440476Y-108507200D02*
X94345238Y-108554819D01*
X94345238Y-108554819D02*
X94059524Y-108554819D01*
X94059524Y-108554819D02*
X93964286Y-108507200D01*
X93964286Y-108507200D02*
X93916667Y-108459580D01*
X82833333Y-101054819D02*
X82500000Y-100578628D01*
X82261905Y-101054819D02*
X82261905Y-100054819D01*
X82261905Y-100054819D02*
X82642857Y-100054819D01*
X82642857Y-100054819D02*
X82738095Y-100102438D01*
X82738095Y-100102438D02*
X82785714Y-100150057D01*
X82785714Y-100150057D02*
X82833333Y-100245295D01*
X82833333Y-100245295D02*
X82833333Y-100388152D01*
X82833333Y-100388152D02*
X82785714Y-100483390D01*
X82785714Y-100483390D02*
X82738095Y-100531009D01*
X82738095Y-100531009D02*
X82642857Y-100578628D01*
X82642857Y-100578628D02*
X82261905Y-100578628D01*
X83404762Y-100483390D02*
X83309524Y-100435771D01*
X83309524Y-100435771D02*
X83261905Y-100388152D01*
X83261905Y-100388152D02*
X83214286Y-100292914D01*
X83214286Y-100292914D02*
X83214286Y-100245295D01*
X83214286Y-100245295D02*
X83261905Y-100150057D01*
X83261905Y-100150057D02*
X83309524Y-100102438D01*
X83309524Y-100102438D02*
X83404762Y-100054819D01*
X83404762Y-100054819D02*
X83595238Y-100054819D01*
X83595238Y-100054819D02*
X83690476Y-100102438D01*
X83690476Y-100102438D02*
X83738095Y-100150057D01*
X83738095Y-100150057D02*
X83785714Y-100245295D01*
X83785714Y-100245295D02*
X83785714Y-100292914D01*
X83785714Y-100292914D02*
X83738095Y-100388152D01*
X83738095Y-100388152D02*
X83690476Y-100435771D01*
X83690476Y-100435771D02*
X83595238Y-100483390D01*
X83595238Y-100483390D02*
X83404762Y-100483390D01*
X83404762Y-100483390D02*
X83309524Y-100531009D01*
X83309524Y-100531009D02*
X83261905Y-100578628D01*
X83261905Y-100578628D02*
X83214286Y-100673866D01*
X83214286Y-100673866D02*
X83214286Y-100864342D01*
X83214286Y-100864342D02*
X83261905Y-100959580D01*
X83261905Y-100959580D02*
X83309524Y-101007200D01*
X83309524Y-101007200D02*
X83404762Y-101054819D01*
X83404762Y-101054819D02*
X83595238Y-101054819D01*
X83595238Y-101054819D02*
X83690476Y-101007200D01*
X83690476Y-101007200D02*
X83738095Y-100959580D01*
X83738095Y-100959580D02*
X83785714Y-100864342D01*
X83785714Y-100864342D02*
X83785714Y-100673866D01*
X83785714Y-100673866D02*
X83738095Y-100578628D01*
X83738095Y-100578628D02*
X83690476Y-100531009D01*
X83690476Y-100531009D02*
X83595238Y-100483390D01*
X63244642Y-106254819D02*
X62911309Y-105778628D01*
X62673214Y-106254819D02*
X62673214Y-105254819D01*
X62673214Y-105254819D02*
X63054166Y-105254819D01*
X63054166Y-105254819D02*
X63149404Y-105302438D01*
X63149404Y-105302438D02*
X63197023Y-105350057D01*
X63197023Y-105350057D02*
X63244642Y-105445295D01*
X63244642Y-105445295D02*
X63244642Y-105588152D01*
X63244642Y-105588152D02*
X63197023Y-105683390D01*
X63197023Y-105683390D02*
X63149404Y-105731009D01*
X63149404Y-105731009D02*
X63054166Y-105778628D01*
X63054166Y-105778628D02*
X62673214Y-105778628D01*
X64197023Y-106254819D02*
X63625595Y-106254819D01*
X63911309Y-106254819D02*
X63911309Y-105254819D01*
X63911309Y-105254819D02*
X63816071Y-105397676D01*
X63816071Y-105397676D02*
X63720833Y-105492914D01*
X63720833Y-105492914D02*
X63625595Y-105540533D01*
X65149404Y-106254819D02*
X64577976Y-106254819D01*
X64863690Y-106254819D02*
X64863690Y-105254819D01*
X64863690Y-105254819D02*
X64768452Y-105397676D01*
X64768452Y-105397676D02*
X64673214Y-105492914D01*
X64673214Y-105492914D02*
X64577976Y-105540533D01*
X66633333Y-101654819D02*
X66300000Y-101178628D01*
X66061905Y-101654819D02*
X66061905Y-100654819D01*
X66061905Y-100654819D02*
X66442857Y-100654819D01*
X66442857Y-100654819D02*
X66538095Y-100702438D01*
X66538095Y-100702438D02*
X66585714Y-100750057D01*
X66585714Y-100750057D02*
X66633333Y-100845295D01*
X66633333Y-100845295D02*
X66633333Y-100988152D01*
X66633333Y-100988152D02*
X66585714Y-101083390D01*
X66585714Y-101083390D02*
X66538095Y-101131009D01*
X66538095Y-101131009D02*
X66442857Y-101178628D01*
X66442857Y-101178628D02*
X66061905Y-101178628D01*
X67014286Y-100750057D02*
X67061905Y-100702438D01*
X67061905Y-100702438D02*
X67157143Y-100654819D01*
X67157143Y-100654819D02*
X67395238Y-100654819D01*
X67395238Y-100654819D02*
X67490476Y-100702438D01*
X67490476Y-100702438D02*
X67538095Y-100750057D01*
X67538095Y-100750057D02*
X67585714Y-100845295D01*
X67585714Y-100845295D02*
X67585714Y-100940533D01*
X67585714Y-100940533D02*
X67538095Y-101083390D01*
X67538095Y-101083390D02*
X66966667Y-101654819D01*
X66966667Y-101654819D02*
X67585714Y-101654819D01*
X86438095Y-68354819D02*
X86438095Y-69164342D01*
X86438095Y-69164342D02*
X86485714Y-69259580D01*
X86485714Y-69259580D02*
X86533333Y-69307200D01*
X86533333Y-69307200D02*
X86628571Y-69354819D01*
X86628571Y-69354819D02*
X86819047Y-69354819D01*
X86819047Y-69354819D02*
X86914285Y-69307200D01*
X86914285Y-69307200D02*
X86961904Y-69259580D01*
X86961904Y-69259580D02*
X87009523Y-69164342D01*
X87009523Y-69164342D02*
X87009523Y-68354819D01*
X87390476Y-68354819D02*
X88009523Y-68354819D01*
X88009523Y-68354819D02*
X87676190Y-68735771D01*
X87676190Y-68735771D02*
X87819047Y-68735771D01*
X87819047Y-68735771D02*
X87914285Y-68783390D01*
X87914285Y-68783390D02*
X87961904Y-68831009D01*
X87961904Y-68831009D02*
X88009523Y-68926247D01*
X88009523Y-68926247D02*
X88009523Y-69164342D01*
X88009523Y-69164342D02*
X87961904Y-69259580D01*
X87961904Y-69259580D02*
X87914285Y-69307200D01*
X87914285Y-69307200D02*
X87819047Y-69354819D01*
X87819047Y-69354819D02*
X87533333Y-69354819D01*
X87533333Y-69354819D02*
X87438095Y-69307200D01*
X87438095Y-69307200D02*
X87390476Y-69259580D01*
X80861905Y-116844819D02*
X80861905Y-115844819D01*
X80861905Y-115844819D02*
X81100000Y-115844819D01*
X81100000Y-115844819D02*
X81242857Y-115892438D01*
X81242857Y-115892438D02*
X81338095Y-115987676D01*
X81338095Y-115987676D02*
X81385714Y-116082914D01*
X81385714Y-116082914D02*
X81433333Y-116273390D01*
X81433333Y-116273390D02*
X81433333Y-116416247D01*
X81433333Y-116416247D02*
X81385714Y-116606723D01*
X81385714Y-116606723D02*
X81338095Y-116701961D01*
X81338095Y-116701961D02*
X81242857Y-116797200D01*
X81242857Y-116797200D02*
X81100000Y-116844819D01*
X81100000Y-116844819D02*
X80861905Y-116844819D01*
X81766667Y-115844819D02*
X82433333Y-115844819D01*
X82433333Y-115844819D02*
X82004762Y-116844819D01*
X65233333Y-107454819D02*
X64900000Y-106978628D01*
X64661905Y-107454819D02*
X64661905Y-106454819D01*
X64661905Y-106454819D02*
X65042857Y-106454819D01*
X65042857Y-106454819D02*
X65138095Y-106502438D01*
X65138095Y-106502438D02*
X65185714Y-106550057D01*
X65185714Y-106550057D02*
X65233333Y-106645295D01*
X65233333Y-106645295D02*
X65233333Y-106788152D01*
X65233333Y-106788152D02*
X65185714Y-106883390D01*
X65185714Y-106883390D02*
X65138095Y-106931009D01*
X65138095Y-106931009D02*
X65042857Y-106978628D01*
X65042857Y-106978628D02*
X64661905Y-106978628D01*
X66090476Y-106788152D02*
X66090476Y-107454819D01*
X65852381Y-106407200D02*
X65614286Y-107121485D01*
X65614286Y-107121485D02*
X66233333Y-107121485D01*
X91016666Y-70544819D02*
X91016666Y-71259104D01*
X91016666Y-71259104D02*
X90969047Y-71401961D01*
X90969047Y-71401961D02*
X90873809Y-71497200D01*
X90873809Y-71497200D02*
X90730952Y-71544819D01*
X90730952Y-71544819D02*
X90635714Y-71544819D01*
X91969047Y-70544819D02*
X91492857Y-70544819D01*
X91492857Y-70544819D02*
X91445238Y-71021009D01*
X91445238Y-71021009D02*
X91492857Y-70973390D01*
X91492857Y-70973390D02*
X91588095Y-70925771D01*
X91588095Y-70925771D02*
X91826190Y-70925771D01*
X91826190Y-70925771D02*
X91921428Y-70973390D01*
X91921428Y-70973390D02*
X91969047Y-71021009D01*
X91969047Y-71021009D02*
X92016666Y-71116247D01*
X92016666Y-71116247D02*
X92016666Y-71354342D01*
X92016666Y-71354342D02*
X91969047Y-71449580D01*
X91969047Y-71449580D02*
X91921428Y-71497200D01*
X91921428Y-71497200D02*
X91826190Y-71544819D01*
X91826190Y-71544819D02*
X91588095Y-71544819D01*
X91588095Y-71544819D02*
X91492857Y-71497200D01*
X91492857Y-71497200D02*
X91445238Y-71449580D01*
X83638095Y-101454819D02*
X83638095Y-102264342D01*
X83638095Y-102264342D02*
X83685714Y-102359580D01*
X83685714Y-102359580D02*
X83733333Y-102407200D01*
X83733333Y-102407200D02*
X83828571Y-102454819D01*
X83828571Y-102454819D02*
X84019047Y-102454819D01*
X84019047Y-102454819D02*
X84114285Y-102407200D01*
X84114285Y-102407200D02*
X84161904Y-102359580D01*
X84161904Y-102359580D02*
X84209523Y-102264342D01*
X84209523Y-102264342D02*
X84209523Y-101454819D01*
X85209523Y-102454819D02*
X84638095Y-102454819D01*
X84923809Y-102454819D02*
X84923809Y-101454819D01*
X84923809Y-101454819D02*
X84828571Y-101597676D01*
X84828571Y-101597676D02*
X84733333Y-101692914D01*
X84733333Y-101692914D02*
X84638095Y-101740533D01*
X81633333Y-102559580D02*
X81585714Y-102607200D01*
X81585714Y-102607200D02*
X81442857Y-102654819D01*
X81442857Y-102654819D02*
X81347619Y-102654819D01*
X81347619Y-102654819D02*
X81204762Y-102607200D01*
X81204762Y-102607200D02*
X81109524Y-102511961D01*
X81109524Y-102511961D02*
X81061905Y-102416723D01*
X81061905Y-102416723D02*
X81014286Y-102226247D01*
X81014286Y-102226247D02*
X81014286Y-102083390D01*
X81014286Y-102083390D02*
X81061905Y-101892914D01*
X81061905Y-101892914D02*
X81109524Y-101797676D01*
X81109524Y-101797676D02*
X81204762Y-101702438D01*
X81204762Y-101702438D02*
X81347619Y-101654819D01*
X81347619Y-101654819D02*
X81442857Y-101654819D01*
X81442857Y-101654819D02*
X81585714Y-101702438D01*
X81585714Y-101702438D02*
X81633333Y-101750057D01*
X82585714Y-102654819D02*
X82014286Y-102654819D01*
X82300000Y-102654819D02*
X82300000Y-101654819D01*
X82300000Y-101654819D02*
X82204762Y-101797676D01*
X82204762Y-101797676D02*
X82109524Y-101892914D01*
X82109524Y-101892914D02*
X82014286Y-101940533D01*
X58166666Y-72604819D02*
X58166666Y-73319104D01*
X58166666Y-73319104D02*
X58119047Y-73461961D01*
X58119047Y-73461961D02*
X58023809Y-73557200D01*
X58023809Y-73557200D02*
X57880952Y-73604819D01*
X57880952Y-73604819D02*
X57785714Y-73604819D01*
X58547619Y-72604819D02*
X59166666Y-72604819D01*
X59166666Y-72604819D02*
X58833333Y-72985771D01*
X58833333Y-72985771D02*
X58976190Y-72985771D01*
X58976190Y-72985771D02*
X59071428Y-73033390D01*
X59071428Y-73033390D02*
X59119047Y-73081009D01*
X59119047Y-73081009D02*
X59166666Y-73176247D01*
X59166666Y-73176247D02*
X59166666Y-73414342D01*
X59166666Y-73414342D02*
X59119047Y-73509580D01*
X59119047Y-73509580D02*
X59071428Y-73557200D01*
X59071428Y-73557200D02*
X58976190Y-73604819D01*
X58976190Y-73604819D02*
X58690476Y-73604819D01*
X58690476Y-73604819D02*
X58595238Y-73557200D01*
X58595238Y-73557200D02*
X58547619Y-73509580D01*
X65266666Y-64454819D02*
X65266666Y-65169104D01*
X65266666Y-65169104D02*
X65219047Y-65311961D01*
X65219047Y-65311961D02*
X65123809Y-65407200D01*
X65123809Y-65407200D02*
X64980952Y-65454819D01*
X64980952Y-65454819D02*
X64885714Y-65454819D01*
X66171428Y-64788152D02*
X66171428Y-65454819D01*
X65933333Y-64407200D02*
X65695238Y-65121485D01*
X65695238Y-65121485D02*
X66314285Y-65121485D01*
X86633333Y-102654819D02*
X86300000Y-102178628D01*
X86061905Y-102654819D02*
X86061905Y-101654819D01*
X86061905Y-101654819D02*
X86442857Y-101654819D01*
X86442857Y-101654819D02*
X86538095Y-101702438D01*
X86538095Y-101702438D02*
X86585714Y-101750057D01*
X86585714Y-101750057D02*
X86633333Y-101845295D01*
X86633333Y-101845295D02*
X86633333Y-101988152D01*
X86633333Y-101988152D02*
X86585714Y-102083390D01*
X86585714Y-102083390D02*
X86538095Y-102131009D01*
X86538095Y-102131009D02*
X86442857Y-102178628D01*
X86442857Y-102178628D02*
X86061905Y-102178628D01*
X87585714Y-102654819D02*
X87014286Y-102654819D01*
X87300000Y-102654819D02*
X87300000Y-101654819D01*
X87300000Y-101654819D02*
X87204762Y-101797676D01*
X87204762Y-101797676D02*
X87109524Y-101892914D01*
X87109524Y-101892914D02*
X87014286Y-101940533D01*
X88066666Y-98254819D02*
X88066666Y-98969104D01*
X88066666Y-98969104D02*
X88019047Y-99111961D01*
X88019047Y-99111961D02*
X87923809Y-99207200D01*
X87923809Y-99207200D02*
X87780952Y-99254819D01*
X87780952Y-99254819D02*
X87685714Y-99254819D01*
X88495238Y-98350057D02*
X88542857Y-98302438D01*
X88542857Y-98302438D02*
X88638095Y-98254819D01*
X88638095Y-98254819D02*
X88876190Y-98254819D01*
X88876190Y-98254819D02*
X88971428Y-98302438D01*
X88971428Y-98302438D02*
X89019047Y-98350057D01*
X89019047Y-98350057D02*
X89066666Y-98445295D01*
X89066666Y-98445295D02*
X89066666Y-98540533D01*
X89066666Y-98540533D02*
X89019047Y-98683390D01*
X89019047Y-98683390D02*
X88447619Y-99254819D01*
X88447619Y-99254819D02*
X89066666Y-99254819D01*
X71033333Y-100159580D02*
X70985714Y-100207200D01*
X70985714Y-100207200D02*
X70842857Y-100254819D01*
X70842857Y-100254819D02*
X70747619Y-100254819D01*
X70747619Y-100254819D02*
X70604762Y-100207200D01*
X70604762Y-100207200D02*
X70509524Y-100111961D01*
X70509524Y-100111961D02*
X70461905Y-100016723D01*
X70461905Y-100016723D02*
X70414286Y-99826247D01*
X70414286Y-99826247D02*
X70414286Y-99683390D01*
X70414286Y-99683390D02*
X70461905Y-99492914D01*
X70461905Y-99492914D02*
X70509524Y-99397676D01*
X70509524Y-99397676D02*
X70604762Y-99302438D01*
X70604762Y-99302438D02*
X70747619Y-99254819D01*
X70747619Y-99254819D02*
X70842857Y-99254819D01*
X70842857Y-99254819D02*
X70985714Y-99302438D01*
X70985714Y-99302438D02*
X71033333Y-99350057D01*
X71414286Y-99350057D02*
X71461905Y-99302438D01*
X71461905Y-99302438D02*
X71557143Y-99254819D01*
X71557143Y-99254819D02*
X71795238Y-99254819D01*
X71795238Y-99254819D02*
X71890476Y-99302438D01*
X71890476Y-99302438D02*
X71938095Y-99350057D01*
X71938095Y-99350057D02*
X71985714Y-99445295D01*
X71985714Y-99445295D02*
X71985714Y-99540533D01*
X71985714Y-99540533D02*
X71938095Y-99683390D01*
X71938095Y-99683390D02*
X71366667Y-100254819D01*
X71366667Y-100254819D02*
X71985714Y-100254819D01*
X60261905Y-69554819D02*
X60261905Y-68554819D01*
X60261905Y-68554819D02*
X60500000Y-68554819D01*
X60500000Y-68554819D02*
X60642857Y-68602438D01*
X60642857Y-68602438D02*
X60738095Y-68697676D01*
X60738095Y-68697676D02*
X60785714Y-68792914D01*
X60785714Y-68792914D02*
X60833333Y-68983390D01*
X60833333Y-68983390D02*
X60833333Y-69126247D01*
X60833333Y-69126247D02*
X60785714Y-69316723D01*
X60785714Y-69316723D02*
X60738095Y-69411961D01*
X60738095Y-69411961D02*
X60642857Y-69507200D01*
X60642857Y-69507200D02*
X60500000Y-69554819D01*
X60500000Y-69554819D02*
X60261905Y-69554819D01*
X61309524Y-69554819D02*
X61500000Y-69554819D01*
X61500000Y-69554819D02*
X61595238Y-69507200D01*
X61595238Y-69507200D02*
X61642857Y-69459580D01*
X61642857Y-69459580D02*
X61738095Y-69316723D01*
X61738095Y-69316723D02*
X61785714Y-69126247D01*
X61785714Y-69126247D02*
X61785714Y-68745295D01*
X61785714Y-68745295D02*
X61738095Y-68650057D01*
X61738095Y-68650057D02*
X61690476Y-68602438D01*
X61690476Y-68602438D02*
X61595238Y-68554819D01*
X61595238Y-68554819D02*
X61404762Y-68554819D01*
X61404762Y-68554819D02*
X61309524Y-68602438D01*
X61309524Y-68602438D02*
X61261905Y-68650057D01*
X61261905Y-68650057D02*
X61214286Y-68745295D01*
X61214286Y-68745295D02*
X61214286Y-68983390D01*
X61214286Y-68983390D02*
X61261905Y-69078628D01*
X61261905Y-69078628D02*
X61309524Y-69126247D01*
X61309524Y-69126247D02*
X61404762Y-69173866D01*
X61404762Y-69173866D02*
X61595238Y-69173866D01*
X61595238Y-69173866D02*
X61690476Y-69126247D01*
X61690476Y-69126247D02*
X61738095Y-69078628D01*
X61738095Y-69078628D02*
X61785714Y-68983390D01*
X90157142Y-106854819D02*
X89823809Y-106378628D01*
X89585714Y-106854819D02*
X89585714Y-105854819D01*
X89585714Y-105854819D02*
X89966666Y-105854819D01*
X89966666Y-105854819D02*
X90061904Y-105902438D01*
X90061904Y-105902438D02*
X90109523Y-105950057D01*
X90109523Y-105950057D02*
X90157142Y-106045295D01*
X90157142Y-106045295D02*
X90157142Y-106188152D01*
X90157142Y-106188152D02*
X90109523Y-106283390D01*
X90109523Y-106283390D02*
X90061904Y-106331009D01*
X90061904Y-106331009D02*
X89966666Y-106378628D01*
X89966666Y-106378628D02*
X89585714Y-106378628D01*
X91109523Y-106854819D02*
X90538095Y-106854819D01*
X90823809Y-106854819D02*
X90823809Y-105854819D01*
X90823809Y-105854819D02*
X90728571Y-105997676D01*
X90728571Y-105997676D02*
X90633333Y-106092914D01*
X90633333Y-106092914D02*
X90538095Y-106140533D01*
X91728571Y-105854819D02*
X91823809Y-105854819D01*
X91823809Y-105854819D02*
X91919047Y-105902438D01*
X91919047Y-105902438D02*
X91966666Y-105950057D01*
X91966666Y-105950057D02*
X92014285Y-106045295D01*
X92014285Y-106045295D02*
X92061904Y-106235771D01*
X92061904Y-106235771D02*
X92061904Y-106473866D01*
X92061904Y-106473866D02*
X92014285Y-106664342D01*
X92014285Y-106664342D02*
X91966666Y-106759580D01*
X91966666Y-106759580D02*
X91919047Y-106807200D01*
X91919047Y-106807200D02*
X91823809Y-106854819D01*
X91823809Y-106854819D02*
X91728571Y-106854819D01*
X91728571Y-106854819D02*
X91633333Y-106807200D01*
X91633333Y-106807200D02*
X91585714Y-106759580D01*
X91585714Y-106759580D02*
X91538095Y-106664342D01*
X91538095Y-106664342D02*
X91490476Y-106473866D01*
X91490476Y-106473866D02*
X91490476Y-106235771D01*
X91490476Y-106235771D02*
X91538095Y-106045295D01*
X91538095Y-106045295D02*
X91585714Y-105950057D01*
X91585714Y-105950057D02*
X91633333Y-105902438D01*
X91633333Y-105902438D02*
X91728571Y-105854819D01*
X81066666Y-108654819D02*
X81066666Y-109369104D01*
X81066666Y-109369104D02*
X81019047Y-109511961D01*
X81019047Y-109511961D02*
X80923809Y-109607200D01*
X80923809Y-109607200D02*
X80780952Y-109654819D01*
X80780952Y-109654819D02*
X80685714Y-109654819D01*
X82066666Y-109654819D02*
X81495238Y-109654819D01*
X81780952Y-109654819D02*
X81780952Y-108654819D01*
X81780952Y-108654819D02*
X81685714Y-108797676D01*
X81685714Y-108797676D02*
X81590476Y-108892914D01*
X81590476Y-108892914D02*
X81495238Y-108940533D01*
X72261905Y-116254819D02*
X72261905Y-115254819D01*
X72261905Y-115254819D02*
X72500000Y-115254819D01*
X72500000Y-115254819D02*
X72642857Y-115302438D01*
X72642857Y-115302438D02*
X72738095Y-115397676D01*
X72738095Y-115397676D02*
X72785714Y-115492914D01*
X72785714Y-115492914D02*
X72833333Y-115683390D01*
X72833333Y-115683390D02*
X72833333Y-115826247D01*
X72833333Y-115826247D02*
X72785714Y-116016723D01*
X72785714Y-116016723D02*
X72738095Y-116111961D01*
X72738095Y-116111961D02*
X72642857Y-116207200D01*
X72642857Y-116207200D02*
X72500000Y-116254819D01*
X72500000Y-116254819D02*
X72261905Y-116254819D01*
X73404762Y-115683390D02*
X73309524Y-115635771D01*
X73309524Y-115635771D02*
X73261905Y-115588152D01*
X73261905Y-115588152D02*
X73214286Y-115492914D01*
X73214286Y-115492914D02*
X73214286Y-115445295D01*
X73214286Y-115445295D02*
X73261905Y-115350057D01*
X73261905Y-115350057D02*
X73309524Y-115302438D01*
X73309524Y-115302438D02*
X73404762Y-115254819D01*
X73404762Y-115254819D02*
X73595238Y-115254819D01*
X73595238Y-115254819D02*
X73690476Y-115302438D01*
X73690476Y-115302438D02*
X73738095Y-115350057D01*
X73738095Y-115350057D02*
X73785714Y-115445295D01*
X73785714Y-115445295D02*
X73785714Y-115492914D01*
X73785714Y-115492914D02*
X73738095Y-115588152D01*
X73738095Y-115588152D02*
X73690476Y-115635771D01*
X73690476Y-115635771D02*
X73595238Y-115683390D01*
X73595238Y-115683390D02*
X73404762Y-115683390D01*
X73404762Y-115683390D02*
X73309524Y-115731009D01*
X73309524Y-115731009D02*
X73261905Y-115778628D01*
X73261905Y-115778628D02*
X73214286Y-115873866D01*
X73214286Y-115873866D02*
X73214286Y-116064342D01*
X73214286Y-116064342D02*
X73261905Y-116159580D01*
X73261905Y-116159580D02*
X73309524Y-116207200D01*
X73309524Y-116207200D02*
X73404762Y-116254819D01*
X73404762Y-116254819D02*
X73595238Y-116254819D01*
X73595238Y-116254819D02*
X73690476Y-116207200D01*
X73690476Y-116207200D02*
X73738095Y-116159580D01*
X73738095Y-116159580D02*
X73785714Y-116064342D01*
X73785714Y-116064342D02*
X73785714Y-115873866D01*
X73785714Y-115873866D02*
X73738095Y-115778628D01*
X73738095Y-115778628D02*
X73690476Y-115731009D01*
X73690476Y-115731009D02*
X73595238Y-115683390D01*
X91261905Y-102929819D02*
X91261905Y-101929819D01*
X91261905Y-101929819D02*
X91500000Y-101929819D01*
X91500000Y-101929819D02*
X91642857Y-101977438D01*
X91642857Y-101977438D02*
X91738095Y-102072676D01*
X91738095Y-102072676D02*
X91785714Y-102167914D01*
X91785714Y-102167914D02*
X91833333Y-102358390D01*
X91833333Y-102358390D02*
X91833333Y-102501247D01*
X91833333Y-102501247D02*
X91785714Y-102691723D01*
X91785714Y-102691723D02*
X91738095Y-102786961D01*
X91738095Y-102786961D02*
X91642857Y-102882200D01*
X91642857Y-102882200D02*
X91500000Y-102929819D01*
X91500000Y-102929819D02*
X91261905Y-102929819D01*
X92738095Y-101929819D02*
X92261905Y-101929819D01*
X92261905Y-101929819D02*
X92214286Y-102406009D01*
X92214286Y-102406009D02*
X92261905Y-102358390D01*
X92261905Y-102358390D02*
X92357143Y-102310771D01*
X92357143Y-102310771D02*
X92595238Y-102310771D01*
X92595238Y-102310771D02*
X92690476Y-102358390D01*
X92690476Y-102358390D02*
X92738095Y-102406009D01*
X92738095Y-102406009D02*
X92785714Y-102501247D01*
X92785714Y-102501247D02*
X92785714Y-102739342D01*
X92785714Y-102739342D02*
X92738095Y-102834580D01*
X92738095Y-102834580D02*
X92690476Y-102882200D01*
X92690476Y-102882200D02*
X92595238Y-102929819D01*
X92595238Y-102929819D02*
X92357143Y-102929819D01*
X92357143Y-102929819D02*
X92261905Y-102882200D01*
X92261905Y-102882200D02*
X92214286Y-102834580D01*
X73836905Y-101704819D02*
X73836905Y-100704819D01*
X73836905Y-100704819D02*
X74075000Y-100704819D01*
X74075000Y-100704819D02*
X74217857Y-100752438D01*
X74217857Y-100752438D02*
X74313095Y-100847676D01*
X74313095Y-100847676D02*
X74360714Y-100942914D01*
X74360714Y-100942914D02*
X74408333Y-101133390D01*
X74408333Y-101133390D02*
X74408333Y-101276247D01*
X74408333Y-101276247D02*
X74360714Y-101466723D01*
X74360714Y-101466723D02*
X74313095Y-101561961D01*
X74313095Y-101561961D02*
X74217857Y-101657200D01*
X74217857Y-101657200D02*
X74075000Y-101704819D01*
X74075000Y-101704819D02*
X73836905Y-101704819D01*
X75265476Y-101038152D02*
X75265476Y-101704819D01*
X75027381Y-100657200D02*
X74789286Y-101371485D01*
X74789286Y-101371485D02*
X75408333Y-101371485D01*
X62261905Y-102454819D02*
X62261905Y-101454819D01*
X62261905Y-101454819D02*
X62500000Y-101454819D01*
X62500000Y-101454819D02*
X62642857Y-101502438D01*
X62642857Y-101502438D02*
X62738095Y-101597676D01*
X62738095Y-101597676D02*
X62785714Y-101692914D01*
X62785714Y-101692914D02*
X62833333Y-101883390D01*
X62833333Y-101883390D02*
X62833333Y-102026247D01*
X62833333Y-102026247D02*
X62785714Y-102216723D01*
X62785714Y-102216723D02*
X62738095Y-102311961D01*
X62738095Y-102311961D02*
X62642857Y-102407200D01*
X62642857Y-102407200D02*
X62500000Y-102454819D01*
X62500000Y-102454819D02*
X62261905Y-102454819D01*
X63690476Y-101454819D02*
X63500000Y-101454819D01*
X63500000Y-101454819D02*
X63404762Y-101502438D01*
X63404762Y-101502438D02*
X63357143Y-101550057D01*
X63357143Y-101550057D02*
X63261905Y-101692914D01*
X63261905Y-101692914D02*
X63214286Y-101883390D01*
X63214286Y-101883390D02*
X63214286Y-102264342D01*
X63214286Y-102264342D02*
X63261905Y-102359580D01*
X63261905Y-102359580D02*
X63309524Y-102407200D01*
X63309524Y-102407200D02*
X63404762Y-102454819D01*
X63404762Y-102454819D02*
X63595238Y-102454819D01*
X63595238Y-102454819D02*
X63690476Y-102407200D01*
X63690476Y-102407200D02*
X63738095Y-102359580D01*
X63738095Y-102359580D02*
X63785714Y-102264342D01*
X63785714Y-102264342D02*
X63785714Y-102026247D01*
X63785714Y-102026247D02*
X63738095Y-101931009D01*
X63738095Y-101931009D02*
X63690476Y-101883390D01*
X63690476Y-101883390D02*
X63595238Y-101835771D01*
X63595238Y-101835771D02*
X63404762Y-101835771D01*
X63404762Y-101835771D02*
X63309524Y-101883390D01*
X63309524Y-101883390D02*
X63261905Y-101931009D01*
X63261905Y-101931009D02*
X63214286Y-102026247D01*
X84033333Y-107654819D02*
X83700000Y-107178628D01*
X83461905Y-107654819D02*
X83461905Y-106654819D01*
X83461905Y-106654819D02*
X83842857Y-106654819D01*
X83842857Y-106654819D02*
X83938095Y-106702438D01*
X83938095Y-106702438D02*
X83985714Y-106750057D01*
X83985714Y-106750057D02*
X84033333Y-106845295D01*
X84033333Y-106845295D02*
X84033333Y-106988152D01*
X84033333Y-106988152D02*
X83985714Y-107083390D01*
X83985714Y-107083390D02*
X83938095Y-107131009D01*
X83938095Y-107131009D02*
X83842857Y-107178628D01*
X83842857Y-107178628D02*
X83461905Y-107178628D01*
X84366667Y-106654819D02*
X84985714Y-106654819D01*
X84985714Y-106654819D02*
X84652381Y-107035771D01*
X84652381Y-107035771D02*
X84795238Y-107035771D01*
X84795238Y-107035771D02*
X84890476Y-107083390D01*
X84890476Y-107083390D02*
X84938095Y-107131009D01*
X84938095Y-107131009D02*
X84985714Y-107226247D01*
X84985714Y-107226247D02*
X84985714Y-107464342D01*
X84985714Y-107464342D02*
X84938095Y-107559580D01*
X84938095Y-107559580D02*
X84890476Y-107607200D01*
X84890476Y-107607200D02*
X84795238Y-107654819D01*
X84795238Y-107654819D02*
X84509524Y-107654819D01*
X84509524Y-107654819D02*
X84414286Y-107607200D01*
X84414286Y-107607200D02*
X84366667Y-107559580D01*
X93633333Y-116054819D02*
X93300000Y-115578628D01*
X93061905Y-116054819D02*
X93061905Y-115054819D01*
X93061905Y-115054819D02*
X93442857Y-115054819D01*
X93442857Y-115054819D02*
X93538095Y-115102438D01*
X93538095Y-115102438D02*
X93585714Y-115150057D01*
X93585714Y-115150057D02*
X93633333Y-115245295D01*
X93633333Y-115245295D02*
X93633333Y-115388152D01*
X93633333Y-115388152D02*
X93585714Y-115483390D01*
X93585714Y-115483390D02*
X93538095Y-115531009D01*
X93538095Y-115531009D02*
X93442857Y-115578628D01*
X93442857Y-115578628D02*
X93061905Y-115578628D01*
X94538095Y-115054819D02*
X94061905Y-115054819D01*
X94061905Y-115054819D02*
X94014286Y-115531009D01*
X94014286Y-115531009D02*
X94061905Y-115483390D01*
X94061905Y-115483390D02*
X94157143Y-115435771D01*
X94157143Y-115435771D02*
X94395238Y-115435771D01*
X94395238Y-115435771D02*
X94490476Y-115483390D01*
X94490476Y-115483390D02*
X94538095Y-115531009D01*
X94538095Y-115531009D02*
X94585714Y-115626247D01*
X94585714Y-115626247D02*
X94585714Y-115864342D01*
X94585714Y-115864342D02*
X94538095Y-115959580D01*
X94538095Y-115959580D02*
X94490476Y-116007200D01*
X94490476Y-116007200D02*
X94395238Y-116054819D01*
X94395238Y-116054819D02*
X94157143Y-116054819D01*
X94157143Y-116054819D02*
X94061905Y-116007200D01*
X94061905Y-116007200D02*
X94014286Y-115959580D01*
X69786905Y-110354819D02*
X69786905Y-109354819D01*
X69786905Y-109354819D02*
X70025000Y-109354819D01*
X70025000Y-109354819D02*
X70167857Y-109402438D01*
X70167857Y-109402438D02*
X70263095Y-109497676D01*
X70263095Y-109497676D02*
X70310714Y-109592914D01*
X70310714Y-109592914D02*
X70358333Y-109783390D01*
X70358333Y-109783390D02*
X70358333Y-109926247D01*
X70358333Y-109926247D02*
X70310714Y-110116723D01*
X70310714Y-110116723D02*
X70263095Y-110211961D01*
X70263095Y-110211961D02*
X70167857Y-110307200D01*
X70167857Y-110307200D02*
X70025000Y-110354819D01*
X70025000Y-110354819D02*
X69786905Y-110354819D01*
X70739286Y-109450057D02*
X70786905Y-109402438D01*
X70786905Y-109402438D02*
X70882143Y-109354819D01*
X70882143Y-109354819D02*
X71120238Y-109354819D01*
X71120238Y-109354819D02*
X71215476Y-109402438D01*
X71215476Y-109402438D02*
X71263095Y-109450057D01*
X71263095Y-109450057D02*
X71310714Y-109545295D01*
X71310714Y-109545295D02*
X71310714Y-109640533D01*
X71310714Y-109640533D02*
X71263095Y-109783390D01*
X71263095Y-109783390D02*
X70691667Y-110354819D01*
X70691667Y-110354819D02*
X71310714Y-110354819D01*
X61633333Y-108854819D02*
X61300000Y-108378628D01*
X61061905Y-108854819D02*
X61061905Y-107854819D01*
X61061905Y-107854819D02*
X61442857Y-107854819D01*
X61442857Y-107854819D02*
X61538095Y-107902438D01*
X61538095Y-107902438D02*
X61585714Y-107950057D01*
X61585714Y-107950057D02*
X61633333Y-108045295D01*
X61633333Y-108045295D02*
X61633333Y-108188152D01*
X61633333Y-108188152D02*
X61585714Y-108283390D01*
X61585714Y-108283390D02*
X61538095Y-108331009D01*
X61538095Y-108331009D02*
X61442857Y-108378628D01*
X61442857Y-108378628D02*
X61061905Y-108378628D01*
X62490476Y-107854819D02*
X62300000Y-107854819D01*
X62300000Y-107854819D02*
X62204762Y-107902438D01*
X62204762Y-107902438D02*
X62157143Y-107950057D01*
X62157143Y-107950057D02*
X62061905Y-108092914D01*
X62061905Y-108092914D02*
X62014286Y-108283390D01*
X62014286Y-108283390D02*
X62014286Y-108664342D01*
X62014286Y-108664342D02*
X62061905Y-108759580D01*
X62061905Y-108759580D02*
X62109524Y-108807200D01*
X62109524Y-108807200D02*
X62204762Y-108854819D01*
X62204762Y-108854819D02*
X62395238Y-108854819D01*
X62395238Y-108854819D02*
X62490476Y-108807200D01*
X62490476Y-108807200D02*
X62538095Y-108759580D01*
X62538095Y-108759580D02*
X62585714Y-108664342D01*
X62585714Y-108664342D02*
X62585714Y-108426247D01*
X62585714Y-108426247D02*
X62538095Y-108331009D01*
X62538095Y-108331009D02*
X62490476Y-108283390D01*
X62490476Y-108283390D02*
X62395238Y-108235771D01*
X62395238Y-108235771D02*
X62204762Y-108235771D01*
X62204762Y-108235771D02*
X62109524Y-108283390D01*
X62109524Y-108283390D02*
X62061905Y-108331009D01*
X62061905Y-108331009D02*
X62014286Y-108426247D01*
D11*
%TO.C,C4*%
X63390000Y-110790000D02*
X63390000Y-113140000D01*
X63390000Y-117610000D02*
X63390000Y-115260000D01*
X69145563Y-110790000D02*
X63390000Y-110790000D01*
X69145563Y-117610000D02*
X63390000Y-117610000D01*
X70210000Y-111854437D02*
X69145563Y-110790000D01*
X70210000Y-111854437D02*
X70210000Y-113140000D01*
X70210000Y-116545563D02*
X69145563Y-117610000D01*
X70210000Y-116545563D02*
X70210000Y-115260000D01*
X70843750Y-116441250D02*
X70843750Y-115653750D01*
X71237500Y-116047500D02*
X70450000Y-116047500D01*
%TO.C,D1*%
X86912500Y-116335000D02*
X89372500Y-116335000D01*
X89372500Y-114865000D02*
X86912500Y-114865000D01*
X89372500Y-116335000D02*
X89372500Y-114865000D01*
%TO.C,U2*%
X70440000Y-103650000D02*
X70440000Y-105450000D01*
X73660000Y-105450000D02*
X73660000Y-102500000D01*
%TO.C,C3*%
X84762500Y-109252500D02*
X85550000Y-109252500D01*
X85156250Y-108858750D02*
X85156250Y-109646250D01*
X85790000Y-108754437D02*
X85790000Y-110040000D01*
X85790000Y-108754437D02*
X86854437Y-107690000D01*
X85790000Y-113445563D02*
X85790000Y-112160000D01*
X85790000Y-113445563D02*
X86854437Y-114510000D01*
X86854437Y-107690000D02*
X92610000Y-107690000D01*
X86854437Y-114510000D02*
X92610000Y-114510000D01*
X92610000Y-107690000D02*
X92610000Y-110040000D01*
X92610000Y-114510000D02*
X92610000Y-112160000D01*
%TO.C,R8*%
X80357776Y-100627500D02*
X80867224Y-100627500D01*
X80357776Y-101672500D02*
X80867224Y-101672500D01*
%TO.C,R11*%
X66945276Y-103677500D02*
X67454724Y-103677500D01*
X66945276Y-104722500D02*
X67454724Y-104722500D01*
%TO.C,R2*%
X67057776Y-102077500D02*
X67567224Y-102077500D01*
X67057776Y-103122500D02*
X67567224Y-103122500D01*
%TO.C,U3*%
X68820000Y-66080000D02*
X89140000Y-66080000D01*
X89140000Y-96560000D01*
X68820000Y-96560000D01*
X68820000Y-66080000D01*
%TO.C,D7*%
X80260000Y-115210000D02*
X80260000Y-111350000D01*
X80260000Y-115210000D02*
X82260000Y-115210000D01*
X82260000Y-115210000D02*
X82260000Y-111350000D01*
%TO.C,R4*%
X68754724Y-106127500D02*
X68245276Y-106127500D01*
X68754724Y-107172500D02*
X68245276Y-107172500D01*
%TO.C,J5*%
X90020000Y-75130000D02*
X90020000Y-98050000D01*
X90020000Y-75130000D02*
X92680000Y-75130000D01*
X90020000Y-98050000D02*
X92680000Y-98050000D01*
X91350000Y-72530000D02*
X92680000Y-72530000D01*
X92680000Y-72530000D02*
X92680000Y-73860000D01*
X92680000Y-75130000D02*
X92680000Y-98050000D01*
%TO.C,U1*%
X83300000Y-105910000D02*
X85100000Y-105910000D01*
X85100000Y-102690000D02*
X82150000Y-102690000D01*
%TO.C,C1*%
X80340000Y-104041233D02*
X80340000Y-104333767D01*
X81360000Y-104041233D02*
X81360000Y-104333767D01*
%TO.C,J3*%
X59970000Y-72630000D02*
X61300000Y-72630000D01*
X59970000Y-73960000D02*
X59970000Y-72630000D01*
X59970000Y-75230000D02*
X59970000Y-95610000D01*
X59970000Y-75230000D02*
X62630000Y-75230000D01*
X59970000Y-95610000D02*
X62630000Y-95610000D01*
X62630000Y-75230000D02*
X62630000Y-95610000D01*
%TO.C,J4*%
X64270000Y-69040000D02*
X64270000Y-91960000D01*
X64270000Y-69040000D02*
X66930000Y-69040000D01*
X64270000Y-91960000D02*
X66930000Y-91960000D01*
X65600000Y-66440000D02*
X66930000Y-66440000D01*
X66930000Y-66440000D02*
X66930000Y-67770000D01*
X66930000Y-69040000D02*
X66930000Y-91960000D01*
%TO.C,R1*%
X87877500Y-102232776D02*
X87877500Y-102742224D01*
X88922500Y-102232776D02*
X88922500Y-102742224D01*
%TO.C,J2*%
X72550000Y-97170000D02*
X72550000Y-99830000D01*
X85310000Y-97170000D02*
X72550000Y-97170000D01*
X85310000Y-97170000D02*
X85310000Y-99830000D01*
X85310000Y-99830000D02*
X72550000Y-99830000D01*
X86580000Y-97170000D02*
X87910000Y-97170000D01*
X87910000Y-97170000D02*
X87910000Y-98500000D01*
%TO.C,C2*%
X72383767Y-100690000D02*
X72091233Y-100690000D01*
X72383767Y-101710000D02*
X72091233Y-101710000D01*
%TO.C,D9*%
X63110000Y-69950000D02*
X59250000Y-69950000D01*
X63110000Y-71950000D02*
X59250000Y-71950000D01*
X63110000Y-71950000D02*
X63110000Y-69950000D01*
%TO.C,R10*%
X89554724Y-104477500D02*
X89045276Y-104477500D01*
X89554724Y-105522500D02*
X89045276Y-105522500D01*
%TO.C,J1*%
X74430000Y-102530000D02*
X74430000Y-122970000D01*
X74430000Y-102530000D02*
X77030000Y-102530000D01*
X74430000Y-122970000D02*
X79630000Y-122970000D01*
X77030000Y-102530000D02*
X77030000Y-105130000D01*
X77030000Y-105130000D02*
X79630000Y-105130000D01*
X78300000Y-102530000D02*
X79630000Y-102530000D01*
X79630000Y-102530000D02*
X79630000Y-103860000D01*
X79630000Y-105130000D02*
X79630000Y-122970000D01*
%TO.C,D8*%
X71750000Y-115010000D02*
X71750000Y-111150000D01*
X71750000Y-115010000D02*
X73750000Y-115010000D01*
X73750000Y-115010000D02*
X73750000Y-111150000D01*
%TO.C,D5*%
X89465000Y-101600000D02*
X89465000Y-104060000D01*
X89465000Y-104060000D02*
X90935000Y-104060000D01*
X90935000Y-104060000D02*
X90935000Y-101600000D01*
%TO.C,D4*%
X76400000Y-101885000D02*
X78860000Y-101885000D01*
X78860000Y-100415000D02*
X76400000Y-100415000D01*
X78860000Y-101885000D02*
X78860000Y-100415000D01*
%TO.C,D6*%
X64065000Y-102475000D02*
X64065000Y-104935000D01*
X64065000Y-104935000D02*
X65535000Y-104935000D01*
X65535000Y-104935000D02*
X65535000Y-102475000D01*
%TO.C,R3*%
X82067224Y-106377500D02*
X81557776Y-106377500D01*
X82067224Y-107422500D02*
X81557776Y-107422500D01*
%TO.C,R5*%
X90945276Y-115127500D02*
X91454724Y-115127500D01*
X90945276Y-116172500D02*
X91454724Y-116172500D01*
%TO.C,D2*%
X66440000Y-108865000D02*
X66440000Y-110335000D01*
X66440000Y-110335000D02*
X68900000Y-110335000D01*
X68900000Y-108865000D02*
X66440000Y-108865000D01*
%TO.C,R6*%
X64967224Y-109077500D02*
X64457776Y-109077500D01*
X64967224Y-110122500D02*
X64457776Y-110122500D01*
%TD*%
M02*
