%TF.GenerationSoftware,KiCad,Pcbnew,7.0.9*%
%TF.CreationDate,2024-05-10T23:34:41+03:00*%
%TF.ProjectId,switch emergent,73776974-6368-4206-956d-657267656e74,rev?*%
%TF.SameCoordinates,Original*%
%TF.FileFunction,Soldermask,Top*%
%TF.FilePolarity,Negative*%
%FSLAX46Y46*%
G04 Gerber Fmt 4.6, Leading zero omitted, Abs format (unit mm)*
G04 Created by KiCad (PCBNEW 7.0.9) date 2024-05-10 23:34:41*
%MOMM*%
%LPD*%
G01*
G04 APERTURE LIST*
G04 Aperture macros list*
%AMRoundRect*
0 Rectangle with rounded corners*
0 $1 Rounding radius*
0 $2 $3 $4 $5 $6 $7 $8 $9 X,Y pos of 4 corners*
0 Add a 4 corners polygon primitive as box body*
4,1,4,$2,$3,$4,$5,$6,$7,$8,$9,$2,$3,0*
0 Add four circle primitives for the rounded corners*
1,1,$1+$1,$2,$3*
1,1,$1+$1,$4,$5*
1,1,$1+$1,$6,$7*
1,1,$1+$1,$8,$9*
0 Add four rect primitives between the rounded corners*
20,1,$1+$1,$2,$3,$4,$5,0*
20,1,$1+$1,$4,$5,$6,$7,0*
20,1,$1+$1,$6,$7,$8,$9,0*
20,1,$1+$1,$8,$9,$2,$3,0*%
G04 Aperture macros list end*
%ADD10RoundRect,0.250000X0.550000X-1.500000X0.550000X1.500000X-0.550000X1.500000X-0.550000X-1.500000X0*%
%ADD11RoundRect,0.237500X0.287500X0.237500X-0.287500X0.237500X-0.287500X-0.237500X0.287500X-0.237500X0*%
%ADD12R,0.650000X1.560000*%
%ADD13RoundRect,0.250000X-1.500000X-0.550000X1.500000X-0.550000X1.500000X0.550000X-1.500000X0.550000X0*%
%ADD14RoundRect,0.237500X-0.250000X-0.237500X0.250000X-0.237500X0.250000X0.237500X-0.250000X0.237500X0*%
%ADD15C,1.600000*%
%ADD16RoundRect,0.250000X0.300000X-0.300000X0.300000X0.300000X-0.300000X0.300000X-0.300000X-0.300000X0*%
%ADD17RoundRect,0.237500X0.250000X0.237500X-0.250000X0.237500X-0.250000X-0.237500X0.250000X-0.237500X0*%
%ADD18R,1.700000X1.700000*%
%ADD19O,1.700000X1.700000*%
%ADD20R,1.560000X0.650000*%
%ADD21C,3.200000*%
%ADD22RoundRect,0.237500X-0.237500X0.300000X-0.237500X-0.300000X0.237500X-0.300000X0.237500X0.300000X0*%
%ADD23RoundRect,0.237500X-0.237500X0.250000X-0.237500X-0.250000X0.237500X-0.250000X0.237500X0.250000X0*%
%ADD24RoundRect,0.237500X0.300000X0.237500X-0.300000X0.237500X-0.300000X-0.237500X0.300000X-0.237500X0*%
%ADD25RoundRect,0.250000X0.300000X0.300000X-0.300000X0.300000X-0.300000X-0.300000X0.300000X-0.300000X0*%
%ADD26RoundRect,0.237500X0.237500X-0.287500X0.237500X0.287500X-0.237500X0.287500X-0.237500X-0.287500X0*%
%ADD27RoundRect,0.237500X-0.237500X0.287500X-0.237500X-0.287500X0.237500X-0.287500X0.237500X0.287500X0*%
%ADD28RoundRect,0.237500X0.237500X-0.250000X0.237500X0.250000X-0.237500X0.250000X-0.237500X-0.250000X0*%
G04 APERTURE END LIST*
D10*
%TO.C,C4*%
X68000000Y-115050000D03*
X68000000Y-109650000D03*
%TD*%
D11*
%TO.C,D1*%
X86987500Y-115500000D03*
X85237500Y-115500000D03*
%TD*%
D12*
%TO.C,U2*%
X73000000Y-103200000D03*
X72050000Y-103200000D03*
X71100000Y-103200000D03*
X71100000Y-105900000D03*
X72050000Y-105900000D03*
X73000000Y-105900000D03*
%TD*%
D13*
%TO.C,C3*%
X84900000Y-111000000D03*
X90300000Y-111000000D03*
%TD*%
D14*
%TO.C,R8*%
X79700000Y-101150000D03*
X81525000Y-101150000D03*
%TD*%
%TO.C,R11*%
X66400000Y-104200000D03*
X68225000Y-104200000D03*
%TD*%
%TO.C,R2*%
X66400000Y-102600000D03*
X68225000Y-102600000D03*
%TD*%
D15*
%TO.C,U3*%
X86600000Y-73700000D03*
X86600000Y-76240000D03*
X86600000Y-78780000D03*
X86600000Y-81320000D03*
X86600000Y-83860000D03*
X86600000Y-86400000D03*
X86600000Y-88940000D03*
X86600000Y-91480000D03*
X86600000Y-94020000D03*
X84060000Y-94020000D03*
X81520000Y-94020000D03*
X78980000Y-94020000D03*
X76440000Y-94020000D03*
X73900000Y-94020000D03*
X71360000Y-94020000D03*
X71360000Y-91480000D03*
X73900000Y-91480000D03*
X73900000Y-88940000D03*
X73900000Y-86400000D03*
X73900000Y-83860000D03*
X73900000Y-81320000D03*
X73900000Y-78780000D03*
X73900000Y-76240000D03*
X73900000Y-73700000D03*
X73900000Y-71160000D03*
X71360000Y-88940000D03*
X71360000Y-86400000D03*
X71360000Y-83860000D03*
X71360000Y-81320000D03*
X71360000Y-78780000D03*
X71360000Y-76240000D03*
X71360000Y-73700000D03*
X73900000Y-68620000D03*
%TD*%
D16*
%TO.C,D7*%
X81260000Y-111810000D03*
X81260000Y-109010000D03*
%TD*%
D17*
%TO.C,R4*%
X69412500Y-106650000D03*
X67587500Y-106650000D03*
%TD*%
D18*
%TO.C,J5*%
X91350000Y-73860000D03*
D19*
X91350000Y-76400000D03*
X91350000Y-78940000D03*
X91350000Y-81480000D03*
X91350000Y-84020000D03*
X91350000Y-86560000D03*
X91350000Y-89100000D03*
X91350000Y-91640000D03*
X91350000Y-94180000D03*
X91350000Y-96720000D03*
%TD*%
D20*
%TO.C,U1*%
X82850000Y-103350000D03*
X82850000Y-104300000D03*
X82850000Y-105250000D03*
X85550000Y-105250000D03*
X85550000Y-104300000D03*
X85550000Y-103350000D03*
%TD*%
D21*
%TO.C,REF\u002A\u002A*%
X60000000Y-66000000D03*
%TD*%
%TO.C,REF\u002A\u002A*%
X92000000Y-120000000D03*
%TD*%
D22*
%TO.C,C1*%
X80850000Y-103325000D03*
X80850000Y-105050000D03*
%TD*%
D18*
%TO.C,J3*%
X61300000Y-73960000D03*
D19*
X61300000Y-76500000D03*
X61300000Y-79040000D03*
X61300000Y-81580000D03*
X61300000Y-84120000D03*
X61300000Y-86660000D03*
X61300000Y-89200000D03*
X61300000Y-91740000D03*
X61300000Y-94280000D03*
%TD*%
D18*
%TO.C,J4*%
X65600000Y-67770000D03*
D19*
X65600000Y-70310000D03*
X65600000Y-72850000D03*
X65600000Y-75390000D03*
X65600000Y-77930000D03*
X65600000Y-80470000D03*
X65600000Y-83010000D03*
X65600000Y-85550000D03*
X65600000Y-88090000D03*
X65600000Y-90630000D03*
%TD*%
D23*
%TO.C,R1*%
X88400000Y-101575000D03*
X88400000Y-103400000D03*
%TD*%
D18*
%TO.C,J2*%
X86580000Y-98500000D03*
D19*
X84040000Y-98500000D03*
X81500000Y-98500000D03*
X78960000Y-98500000D03*
X76420000Y-98500000D03*
X73880000Y-98500000D03*
%TD*%
D21*
%TO.C,REF\u002A\u002A*%
X92000000Y-66000000D03*
%TD*%
D24*
%TO.C,C2*%
X73100000Y-101200000D03*
X71375000Y-101200000D03*
%TD*%
D25*
%TO.C,D9*%
X62300000Y-70950000D03*
X59500000Y-70950000D03*
%TD*%
D17*
%TO.C,R10*%
X90212500Y-105000000D03*
X88387500Y-105000000D03*
%TD*%
D21*
%TO.C,REF\u002A\u002A*%
X60000000Y-120000000D03*
%TD*%
D18*
%TO.C,J1*%
X78300000Y-103860000D03*
D19*
X75760000Y-103860000D03*
X78300000Y-106400000D03*
X75760000Y-106400000D03*
X78300000Y-108940000D03*
X75760000Y-108940000D03*
X78300000Y-111480000D03*
X75760000Y-111480000D03*
%TD*%
D16*
%TO.C,D8*%
X72750000Y-111800000D03*
X72750000Y-109000000D03*
%TD*%
D26*
%TO.C,D5*%
X90200000Y-103275000D03*
X90200000Y-101525000D03*
%TD*%
D11*
%TO.C,D4*%
X78075000Y-101150000D03*
X76325000Y-101150000D03*
%TD*%
D26*
%TO.C,D6*%
X64800000Y-104150000D03*
X64800000Y-102400000D03*
%TD*%
D17*
%TO.C,R3*%
X82725000Y-106900000D03*
X80900000Y-106900000D03*
%TD*%
D14*
%TO.C,R5*%
X88687500Y-115550000D03*
X90512500Y-115550000D03*
%TD*%
D27*
%TO.C,D2*%
X63540000Y-113390000D03*
X63540000Y-115140000D03*
%TD*%
D28*
%TO.C,R6*%
X63540000Y-111790000D03*
X63540000Y-109965000D03*
%TD*%
M02*
